# xmcd
# 
# Track frame offsets:
#     150
#     11890
#     28752
#     45650
# 
# Disc length: 948
# 
# Revision: 0
# Processed by: cddbd v1.5.2PL0 Copyright (c) Steve Scherf et al.
# Submitted via: fre:ac v1.0.17
# 
DISCID=2c03b204
DTITLE=OZROSAURUS - Bay Blues
DYEAR=1998
DGENRE=Hip-Hop
TTITLE0=鉄の意志
TTITLE1=ドツボ
TTITLE2=Bay Blues
TTITLE3=命のメロディー～遠い記憶Ⅲ
EXTD=
EXTT0=
EXTT1=
EXTT2=
EXTT3=
PLAYORDER=
